<?xml version="1.0" encoding="utf-8"?>
<!-- Generator: Adobe Illustrator 18.0.0, SVG Export Plug-In . SVG Version: 6.00 Build 0)  -->
<!DOCTYPE svg PUBLIC "-//W3C//DTD SVG 1.1//EN" "http://www.w3.org/Graphics/SVG/1.1/DTD/svg11.dtd">
<svg version="1.1" id="Icon_Set" xmlns="http://www.w3.org/2000/svg" xmlns:xlink="http://www.w3.org/1999/xlink" x="0px" y="0px"
	 viewBox="0 0 256 256" style="enable-background:new 0 0 256 256;" xml:space="preserve">
<style type="text/css">
	.st0{fill:#484771;}
	.st1{fill:#F1C48B;}
	.st2{fill:#D5E6F7;}
	.st3{fill:#A0D1F2;}
	.st4{fill:#FD919F;}
	.st5{fill:#E0667D;}
	.st6{fill:#504774;}
	.st7{fill:#7BACF1;}
	.st8{fill:#FFFFFF;}
	.st9{fill:#D4E7F8;}
	.st10{fill:#A3D0F1;}
	.st11{fill:#4C4372;}
	.st12{fill:#7BABF3;}
	.st13{fill:#FD919E;}
	.st14{fill:#D3E6F8;}
	.st15{fill:#E8677D;}
	.st16{fill:#A4CFF2;}
</style>
<g>
	<g>
		<circle class="st1" cx="128" cy="128" r="103.873"/>
	</g>
	<g>
		<g>
			<path class="st4" d="M200.735,148.893c-43.569-25.711-85.656,25.709-129.226,0c0-33.67,0-67.34,0-101.01
				c43.57,25.709,85.657-25.71,129.226,0C200.735,81.552,200.735,115.223,200.735,148.893z"/>
		</g>
	</g>
	<g>
		<path class="st5" d="M182.437,142.193c6.076,0.994,12.172,3.084,18.298,6.7c0-33.67,0-67.34,0-101.01
			c-6.126-3.615-12.223-5.705-18.298-6.699V142.193z"/>
	</g>
	<g>
		<g>
			<path class="st6" d="M98.954,159.313c-10.556,0-20.032-2.563-28.97-7.837c-0.914-0.54-1.476-1.522-1.476-2.584V47.883
				c0-1.077,0.577-2.071,1.513-2.605c0.936-0.532,2.086-0.525,3.012,0.021c7.988,4.714,16.469,7.005,25.926,7.005
				c11.994,0,24.35-3.709,36.3-7.295c12.364-3.711,25.149-7.549,38.024-7.549c10.56,0,20.038,2.564,28.977,7.839
				c0.914,0.54,1.476,1.522,1.476,2.584v101.01c0,1.077-0.577,2.071-1.513,2.605c-0.935,0.534-2.085,0.526-3.012-0.021
				c-7.989-4.715-16.47-7.006-25.928-7.006c-11.995,0-24.352,3.708-36.302,7.295c-12.363,3.71-25.147,7.547-38.021,7.548
				C98.958,159.313,98.956,159.313,98.954,159.313z M74.509,147.148c7.557,4.146,15.572,6.165,24.445,6.165c0.002,0,0.003,0,0.005,0
				c11.993-0.001,24.349-3.709,36.298-7.295c12.364-3.711,25.15-7.548,38.026-7.548c8.798,0,16.843,1.778,24.452,5.422V49.627
				c-7.558-4.147-15.575-6.167-24.452-6.167c-11.994,0-24.351,3.709-36.3,7.296c-12.364,3.711-25.149,7.548-38.024,7.548
				c-8.796,0-16.842-1.779-24.45-5.422V147.148z"/>
		</g>
	</g>
	<g>
		<path class="st2" d="M63.387,225.679L63.387,225.679c4.486,0,8.122-3.636,8.122-8.122V38.443c0-4.486-3.636-8.122-8.122-8.122h0
			c-4.486,0-8.122,3.636-8.122,8.122v179.114C55.265,222.043,58.901,225.679,63.387,225.679z"/>
	</g>
	<g>
		<path class="st6" d="M63.387,228.679c-6.133,0-11.122-4.989-11.122-11.121V38.442c0-6.132,4.989-11.121,11.122-11.121
			s11.122,4.989,11.122,11.121v179.115C74.509,223.689,69.52,228.679,63.387,228.679z M63.387,33.321
			c-2.824,0-5.122,2.297-5.122,5.121v179.115c0,2.824,2.298,5.121,5.122,5.121s5.122-2.297,5.122-5.121V38.442
			C68.509,35.618,66.211,33.321,63.387,33.321z"/>
	</g>
	<g>
		<path class="st2" d="M132.943,65.091c-17.606,0-31.878,14.272-31.878,31.878c0,10.319,4.908,19.488,12.511,25.315v11.78
			l7.506-7.506c3.667,1.472,7.668,2.289,11.861,2.289c17.606,0,31.878-14.272,31.878-31.878S150.549,65.091,132.943,65.091z"/>
	</g>
	<g>
		<g>
			<path class="st0" d="M129.722,103.412V79.535c0-1.773,1.478-3.251,3.251-3.251c1.773,0,3.191,1.477,3.191,3.251v23.877
				c0,1.832-1.418,3.251-3.191,3.251C131.2,106.662,129.722,105.244,129.722,103.412z M132.973,117.655
				c-1.773,0-3.251-1.418-3.251-3.251v-1.182c0-1.773,1.478-3.251,3.251-3.251c1.773,0,3.191,1.477,3.191,3.251v1.182
				C136.164,116.237,134.746,117.655,132.973,117.655z"/>
		</g>
	</g>
	<g>
		<path class="st6" d="M113.575,137.065c-0.386,0-0.775-0.074-1.147-0.229c-1.12-0.464-1.852-1.558-1.852-2.771v-10.34
			c-7.971-6.654-12.512-16.322-12.512-26.756c0-19.231,15.646-34.878,34.879-34.878c19.231,0,34.878,15.646,34.878,34.878
			c0,19.232-15.646,34.879-34.878,34.879c-3.797,0-7.521-0.608-11.097-1.813l-6.149,6.15
			C115.124,136.761,114.356,137.065,113.575,137.065z M132.943,68.092c-15.924,0-28.879,12.954-28.879,28.878
			c0,9.054,4.132,17.413,11.336,22.934c0.741,0.567,1.176,1.447,1.176,2.381v4.538l2.385-2.385c0.849-0.849,2.121-1.112,3.238-0.663
			c3.431,1.376,7.045,2.074,10.744,2.074c15.924,0,28.878-12.955,28.878-28.879S148.867,68.092,132.943,68.092z"/>
	</g>
</g>
</svg>
