<?xml version="1.0" encoding="utf-8"?>
<!-- Generator: Adobe Illustrator 22.0.1, SVG Export Plug-In . SVG Version: 6.00 Build 0)  -->
<svg version="1.1" id="Layer_1" xmlns="http://www.w3.org/2000/svg" xmlns:xlink="http://www.w3.org/1999/xlink" x="0px" y="0px"
	 viewBox="0 0 512 512" style="enable-background:new 0 0 512 512;" xml:space="preserve">
<style type="text/css">
	.st0{fill:#35216D;}
	.st1{fill:#EDF3FC;}
	.st2{fill:#330D84;}
	.st3{fill:#FFBE1B;}
	.st4{fill:#0061F3;}
	.st5{fill:#8C7BFD;}
	.st6{fill:#FFFFFF;}
	.st7{fill:#5932AE;}
	.st8{fill:#1C46C4;}
	.st9{fill:#6857E5;}
	.st10{fill:#5D8EF9;}
	.st11{fill:#8AC9F9;}
	.st12{fill:#FFE37B;}
	.st13{fill:#FFD000;}
	.st14{fill:#2EF39E;}
	.st15{fill:#330D84;stroke:#330D84;stroke-width:0.6306;stroke-linecap:round;stroke-linejoin:round;stroke-miterlimit:10;}
	.st16{fill:#FFFFFF;stroke:#FFFFFF;stroke-width:0.737;stroke-linecap:round;stroke-linejoin:round;stroke-miterlimit:10;}
	.st17{fill:none;}
	.st18{fill:#FDB813;}
</style>
<g>
	<g>
		<g>
			<path class="st1" d="M255.999,40.928c-118.778,0-215.071,96.294-215.071,215.074c0,118.776,96.292,215.068,215.071,215.068
				S471.07,374.778,471.07,256.002C471.07,137.222,374.777,40.928,255.999,40.928z"/>
		</g>
	</g>
	<g>
		<g>
			<path class="st1" d="M255.999,1C115.391,1,1,115.392,1,256.002C1,396.609,115.391,511,255.999,511S511,396.609,511,256.002
				C511,115.392,396.607,1,255.999,1z M255.999,502.832c-136.103,0-246.83-110.728-246.83-246.83
				c0-136.104,110.727-246.833,246.83-246.833c136.102,0,246.832,110.729,246.832,246.833
				C502.831,392.104,392.101,502.832,255.999,502.832z"/>
		</g>
	</g>
	<g>
		<g>
			<path class="st3" d="M201.421,140.445h-2.447v0.062C199.787,140.472,200.601,140.445,201.421,140.445z"/>
			<path class="st3" d="M350.308,140.501v-0.056h-2.21h0H201.426c30.519,0.001,55.258,24.742,55.258,55.261v113.375h146.674V195.706
				C403.359,165.927,379.802,141.663,350.308,140.501z"/>
		</g>
		<path class="st12" d="M256.685,309.081H146.163V195.706c0-30.52,24.741-55.261,55.261-55.261h0
			c30.52,0,55.261,24.741,55.261,55.261V309.081z"/>
	</g>
	<path class="st7" d="M256.685,197.299H132.03c-6.171,0-11.173,5.004-11.173,11.171v78.436c0,6.173,5.001,11.175,11.173,11.175
		h124.655V197.299z"/>
	<path class="st9" d="M203.77,256.422c-3.844,3.311-9.532,3.311-13.376,0l-8.303-7.15l-57.278,46.162
		c1.947,1.65,4.465,2.646,7.216,2.646h124.655v-12.854l-44.612-35.954L203.77,256.422z"/>
	<path class="st5" d="M256.685,197.299H132.029c-2.751,0-5.27,0.997-7.216,2.647l65.581,56.477c3.844,3.311,9.532,3.311,13.376,0
		l52.915-45.569V197.299z"/>
	<g>
		<path class="st3" d="M205.227,242.091c0,4.498-3.646,8.145-8.145,8.145c-4.498,0-8.145-3.646-8.145-8.145
			c0-4.498,3.646-8.145,8.145-8.145C201.58,233.947,205.227,237.593,205.227,242.091z"/>
	</g>
	<rect x="273.518" y="309.081" class="st11" width="32.345" height="62.474"/>
	
		<rect x="305.862" y="309.081" transform="matrix(-1 -1.224647e-16 1.224647e-16 -1 631.17 680.6353)" class="st10" width="19.446" height="62.474"/>
	<rect x="99.641" y="298.081" class="st3" width="157.043" height="11"/>
	<path class="st2" d="M225.354,374.209l2.784,0.698l-2.784,0.695c-16.295,4.086-29.01,16.803-33.094,33.099l-0.699,2.778
		l-0.698-2.778c-4.081-16.295-16.802-29.013-33.1-33.099l-2.773-0.695l2.773-0.698c16.298-4.083,29.02-16.803,33.1-33.095
		l0.698-2.776l0.699,2.776C196.344,357.406,209.059,370.126,225.354,374.209L225.354,374.209z"/>
	<path class="st2" d="M156.24,346.845l1.846,0.463l-1.846,0.461c-10.804,2.709-19.234,11.141-21.941,21.944l-0.464,1.842
		l-0.463-1.842c-2.705-10.804-11.14-19.235-21.945-21.944l-1.838-0.461l1.838-0.463c10.806-2.707,19.24-11.141,21.945-21.942
		l0.463-1.84l0.464,1.84C137.006,335.704,145.436,344.138,156.24,346.845L156.24,346.845z"/>
	<path class="st10" d="M393.998,353.347l1.585,0.397l-1.585,0.396c-9.279,2.327-16.519,9.568-18.845,18.848l-0.398,1.582
		l-0.397-1.582c-2.324-9.279-9.568-16.521-18.848-18.848l-1.579-0.396l1.579-0.397c9.281-2.325,16.525-9.568,18.848-18.845
		l0.397-1.581l0.398,1.581C377.478,343.779,384.719,351.022,393.998,353.347L393.998,353.347z"/>
	<path class="st3" d="M246.804,100.509l1.892,0.474l-1.892,0.473c-11.077,2.777-19.72,11.422-22.495,22.499l-0.475,1.889
		l-0.474-1.889c-2.774-11.077-11.421-19.721-22.499-22.499l-1.885-0.473l1.885-0.474c11.078-2.776,19.726-11.422,22.499-22.496
		l0.474-1.887l0.475,1.887C227.084,89.087,235.727,97.734,246.804,100.509L246.804,100.509z"/>
	<path class="st3" d="M187.787,122.381l0.984,0.247l-0.984,0.246c-5.761,1.445-10.256,5.941-11.7,11.702l-0.247,0.982l-0.247-0.982
		c-1.443-5.761-5.94-10.257-11.702-11.702l-0.98-0.246l0.98-0.247c5.762-1.444,10.259-5.941,11.702-11.7l0.247-0.981l0.247,0.981
		C177.531,116.44,182.026,120.937,187.787,122.381L187.787,122.381z"/>
	<polygon class="st2" points="295.16,105.932 295.16,139.511 333.553,123.439 	"/>
	<path class="st9" d="M290.16,188.5c1.758,0,3.437,0.323,5,0.888v-85.736c0-2.761-2.238-5-5-5s-5,2.239-5,5v85.736
		C286.724,188.823,288.402,188.5,290.16,188.5z"/>
	<circle class="st10" cx="290.16" cy="203.25" r="14.75"/>
	<circle class="st11" cx="290.16" cy="203.25" r="7"/>
</g>
</svg>
