<?xml version="1.0" encoding="utf-8"?>
<!-- Generator: Adobe Illustrator 18.0.0, SVG Export Plug-In . SVG Version: 6.00 Build 0)  -->
<!DOCTYPE svg PUBLIC "-//W3C//DTD SVG 1.1//EN" "http://www.w3.org/Graphics/SVG/1.1/DTD/svg11.dtd">
<svg version="1.1" id="Icon_Set" xmlns="http://www.w3.org/2000/svg" xmlns:xlink="http://www.w3.org/1999/xlink" x="0px" y="0px"
	 viewBox="0 0 256 256" style="enable-background:new 0 0 256 256;" xml:space="preserve">
<style type="text/css">
	.st0{fill:#4C4372;}
	.st1{fill:#F1C48B;}
	.st2{fill:#FFFFFF;}
	.st3{fill:#A3D0F1;}
	.st4{fill:#7BACF1;}
	.st5{fill:#D4E7F8;}
	.st6{fill:#FD919E;}
	.st7{fill:#D3E6F7;}
	.st8{fill:#E8677D;}
	.st9{fill:#D3E6F8;}
</style>
<g>
	<g>
		<circle class="st1" cx="128" cy="128" r="104.245"/>
	</g>
	<g>
		<path class="st4" d="M167.667,202H88.333c-3.498,0-6.333-2.835-6.333-6.333V60.333C82,56.835,84.836,54,88.333,54h79.333
			c3.498,0,6.333,2.835,6.333,6.333v135.333C174,199.165,171.164,202,167.667,202z"/>
	</g>
	<g>
		<path class="st6" d="M82,181v14.667c0,3.498,2.836,6.333,6.333,6.333h79.333c3.498,0,6.333-2.836,6.333-6.333V181H82z"/>
	</g>
	<g>
		<path class="st6" d="M136.368,71.5h-16.736c-3.174,0-6.104-1.7-7.678-4.456L104.5,54h47l-7.454,13.044
			C142.472,69.8,139.542,71.5,136.368,71.5z"/>
	</g>
	<g>
		<path class="st8" d="M158,181v14.667c0,3.498-2.835,6.333-6.333,6.333h16c3.498,0,6.333-2.836,6.333-6.333V181H158z"/>
	</g>
	<g>
		<path class="st0" d="M136.368,74.5h-16.736c-4.24,0-8.18-2.287-10.282-5.968l-7.454-13.044c-0.531-0.929-0.527-2.069,0.01-2.994
			S103.431,51,104.5,51h47c1.069,0,2.058,0.569,2.595,1.494s0.541,2.065,0.01,2.994l-7.454,13.044
			C144.548,72.213,140.608,74.5,136.368,74.5z M109.67,57l4.889,8.556c1.038,1.816,2.981,2.944,5.073,2.944h16.736
			c2.092,0,4.035-1.128,5.073-2.944L146.33,57H109.67z"/>
	</g>
	<g>
		<path class="st0" d="M167.667,205H88.333c-5.146,0-9.333-4.187-9.333-9.333V181c0-1.657,1.343-3,3-3h92c1.657,0,3,1.343,3,3
			v14.667C177,200.813,172.813,205,167.667,205z M85,184v11.667c0,1.838,1.495,3.333,3.333,3.333h79.334
			c1.838,0,3.333-1.495,3.333-3.333V184H85z"/>
	</g>
	<g>
		<path class="st0" d="M167.667,205H88.333c-5.146,0-9.333-4.187-9.333-9.333V60.333C79,55.187,83.187,51,88.333,51h79.334
			c5.146,0,9.333,4.187,9.333,9.333v135.334C177,200.813,172.813,205,167.667,205z M88.333,57C86.495,57,85,58.495,85,60.333
			v135.334c0,1.838,1.495,3.333,3.333,3.333h79.334c1.838,0,3.333-1.495,3.333-3.333V60.333c0-1.838-1.495-3.333-3.333-3.333H88.333
			z"/>
	</g>
	<g>
		<g>
			<path class="st2" d="M143.968,147.446c-0.705-2.943-3.178-4.912-5.895-4.692l-5.957,0.482c-3.851,0.311-7.315-2.607-8.11-6.833
				l0,0c-1.291-6.86-1.291-13.946,0-20.806l0,0c0.795-4.226,4.259-7.144,8.11-6.833l5.957,0.482c2.717,0.22,5.19-1.749,5.895-4.692
				l3.244-13.548c0.935-3.904-1.585-7.779-5.193-7.987l-4.967-0.286c-7.459-0.43-14.662,3.276-19.118,9.98
				c-3.858,5.804-7.6,14.512-9.011,27.276c-0.441,3.989-0.441,8.031,0,12.02c1.411,12.765,5.153,21.473,9.011,27.276
				c4.456,6.705,11.659,10.411,19.118,9.981c1.651-0.095,3.368-0.194,4.97-0.287c3.609-0.208,6.125-4.083,5.19-7.987
				L143.968,147.446z"/>
		</g>
		<g>
			<path class="st0" d="M135.883,172.301c-0.001,0-0.002,0-0.002,0c-8.078-0.001-15.722-4.245-20.446-11.354
				c-5.039-7.582-8.233-17.207-9.493-28.606c-0.466-4.207-0.466-8.473,0-12.68c1.26-11.399,4.454-21.024,9.494-28.606
				c4.986-7.503,13.233-11.806,21.789-11.315l4.967,0.286c2.468,0.143,4.767,1.413,6.308,3.485c1.727,2.323,2.321,5.311,1.631,8.195
				l-3.244,13.547c-1.043,4.354-4.813,7.322-9.056,6.984l-5.956-0.481c-2.329-0.194-4.417,1.718-4.92,4.396
				c-1.229,6.535-1.229,13.162,0,19.697c0.504,2.68,2.615,4.583,4.919,4.396l5.958-0.481c4.19-0.344,8.011,2.63,9.054,6.983
				l3.245,13.548c0.69,2.886,0.096,5.873-1.631,8.197c-1.54,2.071-3.838,3.341-6.305,3.483l-4.971,0.286
				C136.775,172.287,136.329,172.301,135.883,172.301z M135.881,85.699c-6.063,0-11.839,3.243-15.448,8.675
				c-4.505,6.777-7.374,15.507-8.528,25.946c-0.417,3.769-0.417,7.591,0,11.359c1.154,10.439,4.023,19.169,8.527,25.946
				c3.61,5.431,9.386,8.674,15.449,8.675c0.001,0,0.001,0,0.002,0c0.332,0,0.663-0.01,0.996-0.029l4.971-0.286
				c0.942-0.055,1.554-0.695,1.834-1.072c0.654-0.881,0.883-2.085,0.61-3.222l-3.244-13.547c-0.354-1.485-1.513-2.512-2.735-2.4
				l-5.958,0.481c-5.369,0.437-10.231-3.594-11.299-9.268c-1.368-7.271-1.368-14.645,0-21.916c1.066-5.672,5.904-9.689,11.3-9.268
				l5.956,0.481c1.246,0.117,2.382-0.915,2.737-2.401l3.243-13.546c0.272-1.136,0.044-2.339-0.611-3.22
				c-0.28-0.378-0.893-1.02-1.837-1.074l-4.967-0.286C136.546,85.709,136.213,85.699,135.881,85.699z"/>
		</g>
	</g>
	<g>
		<polygon class="st4" points="187.936,150.807 201.718,139.404 215.5,128 201.718,116.596 187.936,105.193 187.936,119.924 
			156.333,119.924 156.333,136.076 187.936,136.076 		"/>
	</g>
	<g>
		<path class="st0" d="M187.936,153.807c-0.434,0-0.87-0.094-1.277-0.285c-1.052-0.495-1.723-1.553-1.723-2.715v-11.73h-28.603
			c-1.657,0-3-1.343-3-3v-16.152c0-1.657,1.343-3,3-3h28.603v-11.73c0-1.162,0.671-2.22,1.723-2.715
			c1.051-0.493,2.294-0.338,3.189,0.403l27.564,22.807c0.689,0.57,1.088,1.418,1.088,2.312s-0.398,1.741-1.088,2.312l-27.564,22.807
			C189.3,153.572,188.62,153.807,187.936,153.807z M159.333,133.076h28.603c1.657,0,3,1.343,3,3v8.354L210.794,128l-19.858-16.431
			v8.354c0,1.657-1.343,3-3,3h-28.603V133.076z"/>
	</g>
</g>
</svg>
