<?xml version="1.0" encoding="utf-8"?>
<!-- Generator: Adobe Illustrator 24.0.0, SVG Export Plug-In . SVG Version: 6.00 Build 0)  -->
<svg version="1.1" xmlns="http://www.w3.org/2000/svg" xmlns:xlink="http://www.w3.org/1999/xlink" x="0px" y="0px"
	 viewBox="0 0 64 64" enable-background="new 0 0 64 64" xml:space="preserve">
<g id="Captions">
</g>
<g id="Icons">
	<g>
		<g>
			<path fill="#FAB400" d="M48,41.639V28h-8.631c-1.426,0-2.712-0.732-3.439-1.958c-0.728-1.226-0.755-2.706-0.072-3.958
				l5.232-9.593C40.116,12.176,39.079,12,38,12v-1.748c0-3.285-2.532-6.15-5.815-6.249C28.787,3.901,26,6.625,26,10v2
				c-5.523,0-10,4.477-10,10v19.639c0,1.552-0.361,3.084-1.056,4.472L12,52h40l-2.944-5.889C48.361,44.723,48,43.192,48,41.639z
				 M34,12h-4v-2c0-1.105,0.895-2,2-2s2,0.895,2,2V12z"/>
		</g>
		<g>
			<path fill="#DC9600" d="M20,41.639V22c0-5.523,4.477-10,10-10v-2c0-2.606,1.665-4.818,3.986-5.646
				c-0.565-0.208-1.169-0.332-1.802-0.351C28.787,3.901,26,6.625,26,10v2c-5.523,0-10,4.477-10,10v19.639
				c0,1.552-0.361,3.084-1.056,4.472L12,52h4l2.944-5.889C19.639,44.723,20,43.192,20,41.639z"/>
		</g>
		<g>
			<path fill="#505050" d="M40,52L40,52c0,4.418-3.582,8-8,8h0c-4.418,0-8-3.582-8-8v0H40z"/>
		</g>
		<g>
			<path fill="#3C3C3C" d="M28,52h-4c0,4.418,3.582,8,8,8c0.692,0,1.36-0.097,2-0.262C30.551,58.848,28,55.726,28,52z"/>
		</g>
		<g>
			<path fill="#FA6450" d="M46.244,7.219l-8.631,15.823C36.886,24.375,37.851,26,39.369,26h17.262c1.518,0,2.483-1.625,1.756-2.958
				L49.756,7.219C48.998,5.829,47.002,5.829,46.244,7.219z"/>
		</g>
		<g>
			<path fill="#DC4632" d="M38.98,23.042L47.61,7.219c0.251-0.459,0.641-0.752,1.073-0.908c-0.874-0.315-1.931-0.023-2.439,0.908
				l-8.631,15.823C36.886,24.375,37.851,26,39.369,26h1.366C39.217,26,38.253,24.375,38.98,23.042z"/>
		</g>
		<g>
			<path fill="#F0F0F0" d="M48,18L48,18c-0.552,0-1-0.448-1-1v-4c0-0.552,0.448-1,1-1l0,0c0.552,0,1,0.448,1,1v4
				C49,17.552,48.552,18,48,18z"/>
		</g>
		<g>
			<path fill="#F0F0F0" d="M48,22L48,22c-0.552,0-1-0.448-1-1v0c0-0.552,0.448-1,1-1l0,0c0.552,0,1,0.448,1,1v0
				C49,21.552,48.552,22,48,22z"/>
		</g>
	</g>
</g>
</svg>
